<?xml version="1.0" standalone="no"?>
<!DOCTYPE svg PUBLIC "-//W3C//DTD SVG 20010904//EN"
 "http://www.w3.org/TR/2001/REC-SVG-20010904/DTD/svg10.dtd">
<svg version="1.0" xmlns="http://www.w3.org/2000/svg"
 width="500.000000pt" height="500.000000pt" viewBox="0 0 500.000000 500.000000"
 preserveAspectRatio="xMidYMid meet">

<g transform="translate(0.000000,500.000000) scale(0.100000,-0.100000)"
fill="#000000" stroke="none">
<path d="M663 2862 l-53 -3 0 -170 0 -169 173 0 c190 1 246 8 286 37 20 16 26
29 26 59 0 32 -5 42 -31 59 l-31 21 25 18 c21 16 23 25 19 58 -7 50 -20 65
-68 78 -40 11 -255 19 -346 12z m258 -98 c23 -28 -14 -44 -98 -44 l-73 0 0 30
0 30 79 0 c60 0 82 -4 92 -16z m16 -120 c10 -27 -12 -35 -98 -37 l-84 -2 -3
28 -3 27 91 0 c73 0 92 -3 97 -16z"/>
<path d="M1167 2864 c-4 -4 -7 -83 -7 -176 l0 -168 200 0 200 0 0 46 0 45
-107 -1 c-60 -1 -116 -1 -125 -1 -15 1 -18 16 -20 129 l-3 127 -65 3 c-36 2
-69 0 -73 -4z"/>
<path d="M1728 2860 c-85 -25 -129 -82 -130 -163 -1 -121 74 -180 232 -181 60
-1 99 4 132 17 165 64 151 279 -21 327 -42 12 -174 12 -213 0z m184 -110 c25
-31 23 -88 -4 -117 -31 -33 -109 -33 -143 2 -41 40 -31 103 20 133 31 19 106
8 127 -18z"/>
<path d="M2235 2854 c-82 -30 -119 -88 -113 -176 5 -72 27 -105 94 -138 42
-21 63 -24 139 -24 60 0 102 6 128 17 33 14 39 14 44 2 3 -9 18 -15 34 -15
l29 0 0 85 0 85 -95 0 -95 0 0 -30 c0 -26 4 -30 28 -30 50 -1 -3 -21 -57 -22
-58 0 -89 14 -101 48 -16 42 -12 64 19 95 33 33 93 40 127 14 22 -16 174 -21
174 -5 0 26 -65 81 -113 95 -63 19 -189 18 -242 -1z"/>
<path d="M2737 2856 c-51 -19 -75 -42 -88 -86 -21 -71 22 -104 147 -115 106
-9 118 -13 104 -30 -14 -17 -86 -20 -95 -5 -3 6 -42 10 -87 10 l-80 0 19 -31
c28 -49 63 -69 139 -81 158 -24 290 54 259 153 -10 31 -80 57 -173 65 -45 4
-82 10 -82 14 0 19 32 32 62 25 18 -4 71 -9 117 -12 l84 -5 -19 33 c-32 55
-75 73 -179 76 -60 2 -103 -1 -128 -11z"/>
<path d="M3120 2695 l0 -175 70 0 70 0 0 70 0 70 95 0 95 0 0 -70 0 -70 70 0
70 0 0 175 0 175 -70 0 -70 0 0 -70 0 -70 -95 0 -95 0 0 70 0 70 -70 0 -70 0
0 -175z"/>
<path d="M3765 2854 c-82 -30 -119 -88 -113 -176 5 -72 27 -105 94 -138 42
-21 62 -25 145 -24 83 0 104 4 145 25 140 72 121 269 -30 314 -62 19 -188 18
-241 -1z m187 -94 c30 -23 40 -62 26 -102 -13 -36 -35 -48 -91 -48 -56 0 -86
23 -94 72 -5 32 -1 41 25 68 37 37 95 41 134 10z"/>
<path d="M4170 2825 l0 -45 65 0 65 0 0 -130 0 -130 75 0 75 0 0 130 0 130 65
0 65 0 0 45 0 45 -205 0 -205 0 0 -45z"/>
</g>
</svg>
